<svg width="508" height="309" viewBox="0 0 508 309" fill="none" xmlns="http://www.w3.org/2000/svg">
<g opacity="0.3">
<rect x="104.901" y="99" width="8.55572" height="8.55572" transform="rotate(45 104.901 99)" fill="#474FFF"/>
<rect x="72.1865" y="99" width="8.55572" height="8.55572" transform="rotate(45 72.1865 99)" fill="#474FFF"/>
<rect x="170.976" y="99" width="8.55572" height="8.55572" transform="rotate(45 170.976 99)" fill="#474FFF"/>
<rect x="237.05" y="99" width="8.55572" height="8.55572" transform="rotate(45 237.05 99)" fill="#474FFF"/>
<rect x="137.938" y="99" width="8.55572" height="8.55572" transform="rotate(45 137.938 99)" fill="#474FFF"/>
<rect x="204.013" y="99" width="8.55572" height="8.55572" transform="rotate(45 204.013 99)" fill="#474FFF"/>
<rect x="270.087" y="99" width="8.55572" height="8.55572" transform="rotate(45 270.087 99)" fill="#474FFF"/>
<rect x="104.901" y="164.43" width="8.55572" height="8.55572" transform="rotate(45 104.901 164.43)" fill="#474FFF"/>
<rect x="72.1865" y="164.43" width="8.55572" height="8.55572" transform="rotate(45 72.1865 164.43)" fill="#474FFF"/>
<rect x="170.976" y="164.43" width="8.55572" height="8.55572" transform="rotate(45 170.976 164.43)" fill="#474FFF"/>
<rect x="237.05" y="164.43" width="8.55572" height="8.55572" transform="rotate(45 237.05 164.43)" fill="#474FFF"/>
<rect x="137.938" y="164.43" width="8.55572" height="8.55572" transform="rotate(45 137.938 164.43)" fill="#474FFF"/>
<rect x="204.013" y="164.43" width="8.55572" height="8.55572" transform="rotate(45 204.013 164.43)" fill="#474FFF"/>
<rect x="270.087" y="164.43" width="8.55572" height="8.55572" transform="rotate(45 270.087 164.43)" fill="#474FFF"/>
<rect x="104.901" y="131.715" width="8.55572" height="8.55572" transform="rotate(45 104.901 131.715)" fill="#474FFF"/>
<rect x="72.1865" y="131.715" width="8.55572" height="8.55572" transform="rotate(45 72.1865 131.715)" fill="#474FFF"/>
<rect x="170.976" y="131.715" width="8.55572" height="8.55572" transform="rotate(45 170.976 131.715)" fill="#474FFF"/>
<rect x="237.05" y="131.715" width="8.55572" height="8.55572" transform="rotate(45 237.05 131.715)" fill="#474FFF"/>
<rect x="137.938" y="131.715" width="8.55572" height="8.55572" transform="rotate(45 137.938 131.715)" fill="#474FFF"/>
<rect x="204.013" y="131.715" width="8.55572" height="8.55572" transform="rotate(45 204.013 131.715)" fill="#474FFF"/>
<rect x="270.086" y="131.715" width="8.55572" height="8.55572" transform="rotate(45 270.086 131.715)" fill="#474FFF"/>
<rect x="104.901" y="197.146" width="8.55572" height="8.55572" transform="rotate(45 104.901 197.146)" fill="#474FFF"/>
<rect x="72.1865" y="197.146" width="8.55572" height="8.55572" transform="rotate(45 72.1865 197.146)" fill="#474FFF"/>
<rect x="170.976" y="197.146" width="8.55572" height="8.55572" transform="rotate(45 170.976 197.146)" fill="#474FFF"/>
<rect x="237.05" y="197.146" width="8.55572" height="8.55572" transform="rotate(45 237.05 197.146)" fill="#474FFF"/>
<rect x="137.938" y="197.146" width="8.55572" height="8.55572" transform="rotate(45 137.938 197.146)" fill="#474FFF"/>
<rect x="204.013" y="197.146" width="8.55572" height="8.55572" transform="rotate(45 204.013 197.146)" fill="#474FFF"/>
<rect x="270.087" y="197.146" width="8.55572" height="8.55572" transform="rotate(45 270.087 197.146)" fill="#474FFF"/>
<rect x="6.05029" y="99" width="8.55572" height="8.55572" transform="rotate(45 6.05029 99)" fill="#474FFF"/>
<rect x="39.0874" y="99" width="8.55572" height="8.55572" transform="rotate(45 39.0874 99)" fill="#474FFF"/>
<rect x="6.0498" y="164.43" width="8.55572" height="8.55572" transform="rotate(45 6.0498 164.43)" fill="#474FFF"/>
<rect x="39.0869" y="164.43" width="8.55572" height="8.55572" transform="rotate(45 39.0869 164.43)" fill="#474FFF"/>
<rect x="6.0498" y="131.715" width="8.55572" height="8.55572" transform="rotate(45 6.0498 131.715)" fill="#474FFF"/>
<rect x="39.0859" y="131.715" width="8.55572" height="8.55572" transform="rotate(45 39.0859 131.715)" fill="#474FFF"/>
<rect x="6.0498" y="197.146" width="8.55572" height="8.55572" transform="rotate(45 6.0498 197.146)" fill="#474FFF"/>
<rect x="39.0869" y="197.146" width="8.55572" height="8.55572" transform="rotate(45 39.0869 197.146)" fill="#474FFF"/>
<rect x="335.901" y="99.0996" width="8.55572" height="8.55572" transform="rotate(45 335.901 99.0996)" fill="#474FFF"/>
<rect x="303.187" y="99.0996" width="8.55572" height="8.55572" transform="rotate(45 303.187 99.0996)" fill="#474FFF"/>
<rect x="401.976" y="99.0996" width="8.55572" height="8.55572" transform="rotate(45 401.976 99.0996)" fill="#474FFF"/>
<rect x="468.05" y="99.0996" width="8.55572" height="8.55572" transform="rotate(45 468.05 99.0996)" fill="#474FFF"/>
<rect x="368.938" y="99.0996" width="8.55572" height="8.55572" transform="rotate(45 368.938 99.0996)" fill="#474FFF"/>
<rect x="435.013" y="99.0996" width="8.55572" height="8.55572" transform="rotate(45 435.013 99.0996)" fill="#474FFF"/>
<rect x="335.901" y="66" width="8.55572" height="8.55572" transform="rotate(45 335.901 66)" fill="#474FFF"/>
<rect x="303.187" y="66" width="8.55572" height="8.55572" transform="rotate(45 303.187 66)" fill="#474FFF"/>
<rect x="401.976" y="66" width="8.55572" height="8.55572" transform="rotate(45 401.976 66)" fill="#474FFF"/>
<rect x="368.938" y="66" width="8.55572" height="8.55572" transform="rotate(45 368.938 66)" fill="#474FFF"/>
<rect x="435.013" y="66" width="8.55572" height="8.55572" transform="rotate(45 435.013 66)" fill="#474FFF"/>
<rect x="335.901" y="230" width="8.55572" height="8.55572" transform="rotate(45 335.901 230)" fill="#474FFF"/>
<rect x="303.187" y="230" width="8.55572" height="8.55572" transform="rotate(45 303.187 230)" fill="#474FFF"/>
<rect x="401.976" y="230" width="8.55572" height="8.55572" transform="rotate(45 401.976 230)" fill="#474FFF"/>
<rect x="368.938" y="230" width="8.55572" height="8.55572" transform="rotate(45 368.938 230)" fill="#474FFF"/>
<rect x="435.013" y="230" width="8.55572" height="8.55572" transform="rotate(45 435.013 230)" fill="#474FFF"/>
<rect x="335.901" y="33" width="8.55572" height="8.55572" transform="rotate(45 335.901 33)" fill="#474FFF"/>
<rect x="303.187" y="33" width="8.55572" height="8.55572" transform="rotate(45 303.187 33)" fill="#474FFF"/>
<rect x="401.976" y="33" width="8.55572" height="8.55572" transform="rotate(45 401.976 33)" fill="#474FFF"/>
<rect x="368.938" y="33" width="8.55572" height="8.55572" transform="rotate(45 368.938 33)" fill="#474FFF"/>
<rect x="335.901" y="263" width="8.55572" height="8.55572" transform="rotate(45 335.901 263)" fill="#474FFF"/>
<rect x="303.187" y="263" width="8.55572" height="8.55572" transform="rotate(45 303.187 263)" fill="#474FFF"/>
<rect x="401.976" y="263" width="8.55572" height="8.55572" transform="rotate(45 401.976 263)" fill="#474FFF"/>
<rect x="368.938" y="263" width="8.55572" height="8.55572" transform="rotate(45 368.938 263)" fill="#474FFF"/>
<rect x="335.901" width="8.55572" height="8.55572" transform="rotate(45 335.901 0)" fill="#474FFF"/>
<rect x="303.187" width="8.55572" height="8.55572" transform="rotate(45 303.187 0)" fill="#474FFF"/>
<rect x="368.938" width="8.55572" height="8.55572" transform="rotate(45 368.938 0)" fill="#474FFF"/>
<rect x="335.901" y="296" width="8.55572" height="8.55572" transform="rotate(45 335.901 296)" fill="#474FFF"/>
<rect x="303.187" y="296" width="8.55572" height="8.55572" transform="rotate(45 303.187 296)" fill="#474FFF"/>
<rect x="368.938" y="296" width="8.55572" height="8.55572" transform="rotate(45 368.938 296)" fill="#474FFF"/>
<rect x="335.901" y="164.529" width="8.55572" height="8.55572" transform="rotate(45 335.901 164.529)" fill="#474FFF"/>
<rect x="303.187" y="164.529" width="8.55572" height="8.55572" transform="rotate(45 303.187 164.529)" fill="#474FFF"/>
<rect x="401.976" y="164.529" width="8.55572" height="8.55572" transform="rotate(45 401.976 164.529)" fill="#474FFF"/>
<rect x="468.05" y="164.529" width="8.55572" height="8.55572" transform="rotate(45 468.05 164.529)" fill="#474FFF"/>
<rect x="368.938" y="164.529" width="8.55572" height="8.55572" transform="rotate(45 368.938 164.529)" fill="#474FFF"/>
<rect x="435.013" y="164.529" width="8.55572" height="8.55572" transform="rotate(45 435.013 164.529)" fill="#474FFF"/>
<rect x="501.087" y="164.529" width="8.55572" height="8.55572" transform="rotate(45 501.087 164.529)" fill="#474FFF"/>
<rect x="335.901" y="131.814" width="8.55572" height="8.55572" transform="rotate(45 335.901 131.814)" fill="#474FFF"/>
<rect x="303.187" y="131.814" width="8.55572" height="8.55572" transform="rotate(45 303.187 131.814)" fill="#474FFF"/>
<rect x="401.976" y="131.814" width="8.55572" height="8.55572" transform="rotate(45 401.976 131.814)" fill="#474FFF"/>
<rect x="468.05" y="131.814" width="8.55572" height="8.55572" transform="rotate(45 468.05 131.814)" fill="#474FFF"/>
<rect x="368.938" y="131.814" width="8.55572" height="8.55572" transform="rotate(45 368.938 131.814)" fill="#474FFF"/>
<rect x="435.013" y="131.814" width="8.55572" height="8.55572" transform="rotate(45 435.013 131.814)" fill="#474FFF"/>
<rect x="501.086" y="131.814" width="8.55572" height="8.55572" transform="rotate(45 501.086 131.814)" fill="#474FFF"/>
<rect x="335.901" y="197.246" width="8.55572" height="8.55572" transform="rotate(45 335.901 197.246)" fill="#474FFF"/>
<rect x="303.187" y="197.246" width="8.55572" height="8.55572" transform="rotate(45 303.187 197.246)" fill="#474FFF"/>
<rect x="401.976" y="197.246" width="8.55572" height="8.55572" transform="rotate(45 401.976 197.246)" fill="#474FFF"/>
<rect x="468.05" y="197.246" width="8.55572" height="8.55572" transform="rotate(45 468.05 197.246)" fill="#474FFF"/>
<rect x="368.938" y="197.246" width="8.55572" height="8.55572" transform="rotate(45 368.938 197.246)" fill="#474FFF"/>
<rect x="435.013" y="197.246" width="8.55572" height="8.55572" transform="rotate(45 435.013 197.246)" fill="#474FFF"/>
</g>
</svg>
