<svg width="20" height="15" viewBox="0 0 20 15" fill="none" xmlns="http://www.w3.org/2000/svg">
<path d="M18.4791 5.78391L13.2422 0.550225C13.0677 0.375786 12.8606 0.237411 12.6326 0.143001C12.4046 0.0485916 12.1602 0 11.9134 0C11.6666 0 11.4222 0.0485916 11.1942 0.143001C10.9662 0.237411 10.759 0.375786 10.5845 0.550225L9.51282 1.62124L10.9667 3.07425L11.9116 2.13176L16.8948 7.11197L11.9116 12.0922L6.92832 7.11197L9.51461 4.52904L8.05892 3.07425L5.34939 5.78391C5.17484 5.95829 5.03638 6.16533 4.94191 6.3932C4.84744 6.62107 4.79883 6.86531 4.79883 7.11197C4.79883 7.35862 4.84744 7.60286 4.94191 7.83073C5.03638 8.0586 5.17484 8.26564 5.34939 8.44002L10.5863 13.6648C10.7608 13.8392 10.9679 13.9776 11.1959 14.072C11.424 14.1664 11.6683 14.215 11.9151 14.215C12.162 14.215 12.4063 14.1664 12.6343 14.072C12.8624 13.9776 13.0695 13.8392 13.244 13.6648L18.4809 8.43288C18.8301 8.0803 19.0259 7.60414 19.0255 7.10803C19.0252 6.61192 18.8288 6.13602 18.4791 5.78391Z" fill="#A661FF"/>
<path fill-rule="evenodd" clip-rule="evenodd" d="M7.83373 0.143001C8.06174 0.237411 8.26891 0.375786 8.4434 0.550225L9.51507 1.62838L8.05938 3.08138L7.11453 2.13889L2.13127 7.1191L8.57022 13.5452L7.11453 15L0.550562 8.44002C0.376016 8.26564 0.23755 8.0586 0.143083 7.83073C0.0486159 7.60286 0 7.35862 0 7.11197C0 6.86531 0.0486159 6.62107 0.143083 6.3932C0.23755 6.16533 0.376016 5.95829 0.550562 5.78391L5.78566 0.550225C5.96015 0.375786 6.16732 0.237411 6.39533 0.143001C6.62334 0.0485916 6.86773 0 7.11453 0C7.36134 0 7.60572 0.0485916 7.83373 0.143001ZM9.51367 4.52734L10.9686 3.07329L15.0076 7.10981L13.5527 8.56386L9.51367 4.52734Z" fill="#A661FF"/>
</svg>
