<svg width="20" height="19" viewBox="0 0 20 19" fill="none" xmlns="http://www.w3.org/2000/svg">
<path d="M4.93945 2.99905C4.93919 3.52948 4.72822 4.03808 4.35296 4.41297C3.9777 4.78785 3.46889 4.99831 2.93845 4.99805C2.40802 4.99778 1.89942 4.78681 1.52453 4.41155C1.14965 4.03629 0.939188 3.52748 0.939453 2.99705C0.939719 2.46661 1.15069 1.95801 1.52595 1.58313C1.90121 1.20824 2.41002 0.997782 2.94045 0.998047C3.47089 0.998312 3.97949 1.20928 4.35437 1.58454C4.72926 1.9598 4.93972 2.46861 4.93945 2.99905ZM4.99945 6.47905H0.999453V18.999H4.99945V6.47905ZM11.3195 6.47905H7.33945V18.999H11.2795V12.429C11.2795 8.76905 16.0495 8.42905 16.0495 12.429V18.999H19.9995V11.069C19.9995 4.89905 12.9395 5.12905 11.2795 8.15905L11.3195 6.47905Z" fill="url(#paint0_linear_1010_1838)"/>
<defs>
<linearGradient id="paint0_linear_1010_1838" x1="0.886696" y1="1.00706" x2="22.1509" y2="4.15001" gradientUnits="userSpaceOnUse">
<stop stop-color="#A661FF"/>
<stop offset="1" stop-color="#474FFF"/>
</linearGradient>
</defs>
</svg>
