<svg width="11" height="14" viewBox="0 0 11 14" fill="none" xmlns="http://www.w3.org/2000/svg">
<path d="M1.96629 1.96631C2.90362 1.02897 4.17443 0.501654 5.5 0.5C6.82557 0.501654 8.09638 1.02897 9.03371 1.96631C9.97117 2.90378 10.4985 4.17483 10.5 5.50062C10.4998 7.67912 9.33817 9.63071 8.09308 11.0892C6.8549 12.5397 5.58945 13.4376 5.50071 13.4995L5.5 13.5L5.49929 13.4995C5.41055 13.4376 4.1451 12.5397 2.90692 11.0892C1.66178 9.63064 0.500099 7.67895 0.5 5.50033C0.50158 4.17465 1.0289 2.90371 1.96629 1.96631ZM6.88893 3.42137C6.4778 3.14666 5.99445 3.00003 5.5 3.00003C4.83696 3.00003 4.20107 3.26343 3.73223 3.73228C3.26339 4.20112 3 4.83701 3 5.50005C3 5.99451 3.14662 6.47786 3.42132 6.88899C3.69603 7.30012 4.08647 7.62055 4.54329 7.80977C5.00011 7.99899 5.50277 8.0485 5.98773 7.95204C6.47268 7.85557 6.91814 7.61747 7.26777 7.26783C7.6174 6.9182 7.8555 6.47274 7.95196 5.98778C8.04843 5.50283 7.99892 5.00016 7.8097 4.54334C7.62048 4.08652 7.30005 3.69607 6.88893 3.42137Z" fill="white" stroke="white"/>
</svg>
