<svg width="468" height="172" viewBox="0 0 468 172" fill="none" xmlns="http://www.w3.org/2000/svg">
<path fill-rule="evenodd" clip-rule="evenodd" d="M351.367 150.273V113.696H363.094V171.127H353.811L325.063 134.469V151.077H313.336V113.696H322.701L351.367 150.273ZM370.586 113.696V171.127L409.921 171.097V161.24H382.639V146.984H408.088V137.005H382.639V123.563H409.921V113.696H370.586ZM435.575 171.127V124.123H416.6V113.696H467.172V124.123H448.197V171.127H435.575ZM313.336 159.641H325.063V171.127H313.336V159.641Z" fill="url(#paint0_linear_286_714)"/>
<path d="M59.2958 171.932C55.4076 172.025 51.558 171.143 48.0982 169.366C44.9874 167.72 42.4256 165.2 40.7281 162.116C39.0141 158.674 38.1221 154.882 38.1221 151.037C38.1221 147.192 39.0141 143.399 40.7281 139.958C42.4189 136.879 44.9835 134.371 48.0982 132.748C51.5972 131.086 55.4222 130.224 59.2958 130.224C63.1694 130.224 66.9945 131.086 70.4935 132.748C73.612 134.376 76.185 136.883 77.8941 139.958C79.6344 143.391 80.5413 147.187 80.5413 151.037C80.5413 154.887 79.6344 158.682 77.8941 162.116C76.1729 165.196 73.5997 167.713 70.4833 169.366C67.0265 171.141 63.1806 172.024 59.2958 171.932ZM59.2958 162.767C60.5069 162.802 61.7102 162.563 62.8168 162.07C63.9233 161.576 64.9048 160.84 65.6887 159.916C67.348 158.012 68.1725 155.059 68.1725 151.037C68.1725 147.015 67.348 144.153 65.6887 142.28C64.8981 141.366 63.9143 140.64 62.8087 140.154C61.703 139.668 60.5031 139.434 59.2958 139.469C58.0942 139.431 56.8994 139.664 55.7999 140.151C54.7004 140.637 53.7243 141.365 52.9437 142.28C51.3149 144.153 50.5006 147.072 50.5006 151.037C50.5006 155.059 51.3149 158.012 52.9437 159.916C53.7214 160.834 54.697 161.564 55.7972 162.051C56.8973 162.538 58.0936 162.769 59.2958 162.727V162.767Z" fill="white"/>
<path d="M33.8661 165.792C32.7794 163.811 31.9515 161.7 31.4026 159.509C28.8586 161.375 25.8021 162.413 22.6481 162.482C21.2567 162.562 19.8651 162.33 18.5756 161.801C17.2861 161.272 16.1314 160.461 15.1965 159.427C13.432 157.391 12.5498 154.58 12.5498 150.996C12.5498 147.412 13.432 144.601 15.1965 142.565C16.1439 141.552 17.3028 140.76 18.5907 140.246C19.8786 139.732 21.2639 139.509 22.6481 139.591C24.3195 139.611 25.9741 139.928 27.5343 140.528C28.8979 141.034 30.1883 141.719 31.372 142.565C31.9221 140.337 32.7605 138.191 33.8661 136.18C34.2325 135.518 34.6397 134.887 35.0571 134.266C33.2977 132.927 31.2963 131.942 29.1631 131.363C26.652 130.615 24.0466 130.231 21.4265 130.223C17.4936 130.135 13.5973 130.994 10.066 132.728C6.92469 134.304 4.32879 136.787 2.61442 139.856C0.800662 143.261 -0.0973559 147.078 0.00842766 150.935C-0.0976828 154.83 0.799736 158.688 2.61442 162.136C4.3215 165.251 6.91501 167.789 10.066 169.427C13.5836 171.205 17.4861 172.087 21.4265 171.993C24.0493 171.981 26.656 171.583 29.1631 170.812C31.314 170.207 33.3288 169.194 35.0978 167.828C34.6702 167.136 34.2427 166.474 33.8661 165.792Z" fill="white"/>
<path d="M87.5547 123.299V111.812H100.788V123.299H87.5547ZM88.0433 171.036V131.038H100.34V171.036H88.0433Z" fill="white"/>
<path d="M110.03 171.036V131.037H122.083V136.801C123.25 134.764 124.955 133.087 127.01 131.954C129.247 130.748 131.758 130.144 134.299 130.202C136.831 130.124 139.332 130.774 141.506 132.076C143.585 133.442 145.17 135.441 146.026 137.778C147.241 135.425 149.125 133.483 151.441 132.198C153.837 130.841 156.547 130.139 159.3 130.162C163.86 130.162 167.254 131.519 169.48 134.235C171.706 136.95 172.819 141.2 172.819 146.984V171.015H160.521V147.391C160.521 144.73 160.101 142.788 159.259 141.566C158.759 140.925 158.104 140.421 157.357 140.101C156.609 139.78 155.793 139.654 154.984 139.734C153.946 139.682 152.911 139.877 151.963 140.302C151.015 140.726 150.18 141.369 149.527 142.177C148.107 144.196 147.418 146.638 147.573 149.102V171.015H135.276V147.391C135.276 144.73 134.842 142.788 133.973 141.566C133.476 140.932 132.828 140.432 132.088 140.112C131.349 139.792 130.541 139.662 129.738 139.734C128.701 139.682 127.665 139.877 126.717 140.302C125.769 140.726 124.935 141.369 124.282 142.177C122.862 144.196 122.172 146.638 122.327 149.102V171.015L110.03 171.036Z" fill="white"/>
<path d="M206.94 171.932C204.283 171.975 201.66 171.329 199.326 170.058C197.202 168.934 195.459 167.205 194.317 165.089V171.036H182.265V113.604H194.562V136.414C195.806 134.464 197.568 132.898 199.652 131.893C201.915 130.767 204.413 130.194 206.94 130.223C210.16 130.139 213.332 131.016 216.051 132.743C218.771 134.469 220.915 136.967 222.21 139.917C223.78 143.395 224.555 147.18 224.48 150.996C224.574 154.819 223.823 158.616 222.281 162.115C220.974 165.063 218.856 167.578 216.173 169.366C213.418 171.118 210.204 172.011 206.94 171.932ZM203.275 162.767C204.481 162.804 205.679 162.567 206.78 162.073C207.88 161.579 208.854 160.842 209.628 159.916C211.256 158.012 212.071 155.059 212.071 151.037C212.071 147.014 211.256 144.153 209.628 142.279C208.847 141.365 207.871 140.637 206.771 140.151C205.672 139.664 204.477 139.431 203.275 139.469C202.061 139.428 200.854 139.659 199.74 140.145C198.627 140.631 197.637 141.361 196.842 142.279C195.213 144.153 194.399 147.072 194.399 151.037C194.399 155.059 195.213 158.012 196.842 159.916C197.633 160.84 198.622 161.573 199.736 162.06C200.851 162.546 202.061 162.774 203.275 162.726V162.767Z" fill="white"/>
<path d="M231.941 171.036V131.038H243.994V137.962C245.894 133.285 249.966 130.705 256.21 130.223L259.793 129.979L260.526 140.324L253.604 141.057C247.496 141.662 244.442 144.757 244.442 150.344V171.036H231.941Z" fill="white"/>
<path d="M278.606 171.933C275.875 171.99 273.169 171.404 270.707 170.222C268.528 169.172 266.662 167.571 265.291 165.578C263.949 163.641 263.238 161.337 263.255 158.98C263.127 156.468 263.94 153.999 265.536 152.056C267.056 150.311 269.526 149.076 272.946 148.349C277.441 147.521 282.008 147.153 286.577 147.249H289.509V145.865C289.509 143.472 288.959 141.791 287.88 140.773C286.801 139.755 284.948 139.266 282.342 139.266C280.012 139.287 277.697 139.629 275.461 140.284C272.943 141.006 270.523 142.032 268.254 143.339L264.915 135.111C266.54 134.081 268.274 133.234 270.086 132.586C272.16 131.813 274.3 131.227 276.479 130.835C278.573 130.439 280.699 130.235 282.831 130.224C289.02 130.224 293.635 131.622 296.675 134.419C299.715 137.216 301.236 141.547 301.236 147.412V171.036H289.763V165.008C288.992 167.101 287.563 168.888 285.691 170.1C283.561 171.394 281.097 172.032 278.606 171.933ZM281.375 163.705C282.449 163.727 283.516 163.529 284.511 163.123C285.505 162.717 286.406 162.111 287.157 161.342C287.944 160.537 288.559 159.58 288.965 158.53C289.371 157.48 289.56 156.358 289.519 155.233V153.603H286.669C282.481 153.603 279.522 153.97 277.792 154.703C277.008 154.97 276.331 155.483 275.861 156.165C275.392 156.848 275.155 157.663 275.186 158.491C275.165 159.193 275.296 159.892 275.57 160.538C275.845 161.185 276.255 161.765 276.774 162.238C278.064 163.297 279.71 163.822 281.375 163.705Z" fill="white"/>
<path d="M287.05 34.5666L255.753 3.28834C254.71 2.24582 253.472 1.41885 252.109 0.854624C250.746 0.2904 249.286 0 247.811 0C246.336 0 244.875 0.2904 243.513 0.854624C242.15 1.41885 240.912 2.24582 239.869 3.28834L233.464 9.68908L242.153 18.3728L247.8 12.7401L277.582 42.5036L247.8 72.267L218.019 42.5036L233.475 27.0671L224.775 18.3728L208.582 34.5666C207.539 35.6088 206.712 36.8461 206.147 38.208C205.583 39.5698 205.292 41.0295 205.292 42.5036C205.292 43.9777 205.583 45.4373 206.147 46.7992C206.712 48.161 207.539 49.3983 208.582 50.4405L239.88 81.6654C240.923 82.708 242.161 83.5349 243.523 84.0992C244.886 84.6634 246.347 84.9538 247.822 84.9538C249.297 84.9538 250.757 84.6634 252.12 84.0992C253.482 83.5349 254.721 82.708 255.763 81.6654L287.061 50.3978C289.148 48.2907 290.318 45.445 290.316 42.48C290.314 39.5151 289.14 36.671 287.05 34.5666Z" fill="white"/>
<path fill-rule="evenodd" clip-rule="evenodd" d="M223.426 0.854624C224.789 1.41885 226.027 2.24582 227.07 3.28834L233.475 9.73176L224.775 18.4154L219.128 12.7828L189.347 42.5462L227.828 80.9507L219.128 89.6451L179.9 50.4405C178.857 49.3983 178.029 48.161 177.464 46.7992C176.9 45.4373 176.609 43.9777 176.609 42.5036C176.609 41.0295 176.9 39.5698 177.464 38.208C178.029 36.8462 178.857 35.6088 179.9 34.5667L211.187 3.28834C212.229 2.24582 213.467 1.41885 214.83 0.854624C216.193 0.2904 217.653 0 219.128 0C220.603 0 222.064 0.2904 223.426 0.854624ZM233.466 27.056L242.161 18.366L266.299 42.4897L257.604 51.1796L233.466 27.056Z" fill="url(#paint1_linear_286_714)"/>
<defs>
<linearGradient id="paint0_linear_286_714" x1="312.91" y1="113.725" x2="466.774" y2="171.257" gradientUnits="userSpaceOnUse">
<stop stop-color="#A661FF"/>
<stop offset="1" stop-color="#474FFF"/>
</linearGradient>
<linearGradient id="paint1_linear_286_714" x1="176.361" y1="0.0448771" x2="276.653" y2="14.0519" gradientUnits="userSpaceOnUse">
<stop stop-color="#A661FF"/>
<stop offset="1" stop-color="#474FFF"/>
</linearGradient>
</defs>
</svg>
