<svg width="48" height="38" viewBox="0 0 48 38" fill="none" xmlns="http://www.w3.org/2000/svg">
<path d="M46.6211 14.6702L33.4091 1.46628C32.9689 1.02618 32.4462 0.677082 31.871 0.438899C31.2957 0.200716 30.6792 0.078125 30.0565 0.078125C29.4338 0.078125 28.8173 0.200716 28.242 0.438899C27.6668 0.677082 27.1441 1.02618 26.7039 1.46628L24.0002 4.16831L27.6682 7.83407L30.052 5.45628L42.6241 18.0207L30.052 30.5852L17.4799 18.0207L24.0048 11.5043L20.3322 7.83407L13.4964 14.6702C13.0561 15.1102 12.7067 15.6325 12.4684 16.2074C12.2301 16.7823 12.1074 17.3984 12.1074 18.0207C12.1074 18.643 12.2301 19.2592 12.4684 19.8341C12.7067 20.409 13.0561 20.9313 13.4964 21.3712L26.7084 34.5527C27.1486 34.9927 27.6713 35.3418 28.2466 35.58C28.8218 35.8182 29.4383 35.9408 30.061 35.9408C30.6837 35.9408 31.3002 35.8182 31.8755 35.58C32.4507 35.3418 32.9734 34.9927 33.4136 34.5527L46.6256 21.3532C47.5067 20.4637 48.0005 19.2624 47.9997 18.0108C47.9988 16.7592 47.5033 15.5585 46.6211 14.6702Z" fill="white"/>
<path fill-rule="evenodd" clip-rule="evenodd" d="M19.7635 0.438899C20.3388 0.677082 20.8614 1.02618 21.3016 1.46628L24.0053 4.18632L20.3328 7.85207L17.9491 5.47429L5.37693 18.0387L21.6216 34.2509L17.9491 37.9212L1.389 21.3712C0.94864 20.9313 0.59931 20.409 0.360981 19.8341C0.122652 19.2592 0 18.643 0 18.0207C0 17.3984 0.122652 16.7823 0.360981 16.2074C0.59931 15.6325 0.94864 15.1102 1.389 14.6702L14.5965 1.46628C15.0367 1.02618 15.5594 0.677082 16.1346 0.438899C16.7099 0.200716 17.3264 0.078125 17.9491 0.078125C18.5717 0.078125 19.1883 0.200716 19.7635 0.438899ZM24.0021 11.4997L27.6728 7.83132L37.8626 18.015L34.192 21.6834L24.0021 11.4997Z" fill="url(#paint0_linear_1173_816)"/>
<defs>
<linearGradient id="paint0_linear_1173_816" x1="-0.104801" y1="0.0970696" x2="42.2335" y2="6.01023" gradientUnits="userSpaceOnUse">
<stop stop-color="#A661FF"/>
<stop offset="1" stop-color="#474FFF"/>
</linearGradient>
</defs>
</svg>
