<svg width="137" height="22" viewBox="0 0 137 22" fill="none" xmlns="http://www.w3.org/2000/svg">
<path d="M95.6577 7.00201V4.90854L101.685 2.92524V4.08217L96.0904 5.87264V6.0379L101.685 7.82838V8.98531L95.6577 7.00201ZM109.879 9.72905H109.706C109.591 9.94024 109.442 10.1239 109.259 10.28C109.086 10.4361 108.894 10.5646 108.682 10.6656C108.48 10.7666 108.264 10.84 108.033 10.886C107.803 10.941 107.582 10.9686 107.37 10.9686C106.89 10.9686 106.443 10.8905 106.029 10.7344C105.616 10.5784 105.251 10.3534 104.933 10.0596C104.626 9.76578 104.381 9.40309 104.198 8.97154C104.025 8.53079 103.939 8.03037 103.939 7.47029V7.24993C103.939 6.69901 104.03 6.20777 104.212 5.77621C104.395 5.33549 104.64 4.96821 104.948 4.67438C105.255 4.37139 105.616 4.14183 106.029 3.98574C106.443 3.82965 106.88 3.75161 107.341 3.75161C107.832 3.75161 108.288 3.85721 108.711 4.0684C109.144 4.27039 109.475 4.58715 109.706 5.01871H109.879V1.13477H111.004V10.7758H109.879V9.72905ZM107.486 9.94941C107.822 9.94941 108.135 9.88971 108.423 9.77035C108.711 9.65099 108.961 9.48112 109.173 9.26077C109.394 9.0404 109.567 8.77871 109.692 8.47572C109.817 8.16353 109.879 7.81921 109.879 7.44276V7.27746C109.879 6.91021 109.817 6.57505 109.692 6.27206C109.567 5.95987 109.394 5.69358 109.173 5.47322C108.961 5.25286 108.706 5.083 108.408 4.96364C108.12 4.83508 107.812 4.77081 107.486 4.77081C107.149 4.77081 106.832 4.83048 106.534 4.94984C106.246 5.0692 105.991 5.2391 105.77 5.45946C105.558 5.67982 105.39 5.94151 105.265 6.2445C105.15 6.54752 105.092 6.88264 105.092 7.24993V7.47029C105.092 7.85594 105.15 8.20026 105.265 8.50326C105.39 8.80625 105.558 9.06794 105.77 9.2883C105.991 9.49949 106.246 9.66478 106.534 9.78415C106.822 9.89431 107.139 9.94941 107.486 9.94941ZM113.993 7.69065C114.022 8.37013 114.243 8.91644 114.656 9.32963C115.07 9.74282 115.646 9.94941 116.386 9.94941C116.723 9.94941 117.016 9.91268 117.266 9.83921C117.516 9.76578 117.727 9.66478 117.9 9.53622C118.083 9.40766 118.227 9.26076 118.333 9.0955C118.448 8.92104 118.54 8.73738 118.607 8.54459L119.674 8.82004C119.472 9.45359 119.097 9.97237 118.549 10.3764C118.011 10.7712 117.28 10.9686 116.357 10.9686C115.848 10.9686 115.377 10.886 114.944 10.7207C114.522 10.5462 114.156 10.3029 113.849 9.99074C113.541 9.67855 113.301 9.30666 113.128 8.87511C112.955 8.44356 112.868 7.96611 112.868 7.44276V7.1122C112.868 6.63475 112.955 6.1894 113.128 5.77621C113.31 5.36303 113.56 5.00954 113.878 4.71571C114.195 4.41272 114.565 4.17857 114.988 4.0133C115.42 3.83884 115.886 3.75161 116.386 3.75161C116.973 3.75161 117.477 3.85721 117.9 4.0684C118.333 4.27039 118.684 4.52289 118.953 4.82591C119.232 5.1289 119.434 5.45946 119.559 5.81754C119.693 6.17563 119.76 6.50619 119.76 6.80918V7.69065H113.993ZM116.386 4.77081C116.069 4.77081 115.771 4.82131 115.492 4.92231C115.223 5.01414 114.983 5.14727 114.771 5.32173C114.57 5.49619 114.401 5.70278 114.267 5.94151C114.142 6.17103 114.06 6.42356 114.022 6.69901H118.636C118.617 6.40519 118.54 6.1389 118.405 5.90018C118.28 5.66145 118.112 5.45946 117.9 5.29416C117.698 5.1289 117.463 5.00034 117.194 4.90854C116.934 4.81671 116.665 4.77081 116.386 4.77081ZM126.253 10.7758H124.033L121.538 3.94444H122.865L125.057 10.28H125.23L127.421 3.94444H128.748L126.253 10.7758ZM130.973 8.98531V7.82838L136.567 6.0379V5.87264L130.973 4.08217V2.92524L137 4.90854V7.00201L130.973 8.98531Z" fill="white"/>
<path d="M12.0116 12.6628L12.3582 16.8866H9.86199L9.50627 12.8737C9.38361 11.4091 8.36858 10.3722 6.88745 10.3722H2.56976V16.8866H0V0.363281H6.77092C10.2576 0.363281 12.3827 2.36975 12.3827 5.31941C12.3827 7.0769 11.3707 8.31886 9.83746 9.05115C10.4867 9.43191 11.0258 9.96191 11.4056 10.5928C11.7853 11.2236 11.9937 11.9353 12.0116 12.6628ZM2.56976 8.19877H6.69732C8.94816 8.19877 9.81292 6.80742 9.81292 5.31941C9.81292 3.8314 8.94816 2.48692 6.69732 2.48692H2.56976V8.19877Z" fill="white"/>
<path d="M24.839 13.0171C24.4005 15.4775 22.1527 17.0769 19.0892 17.0769C15.2315 17.0769 12.8335 14.1711 12.8335 10.8671C12.8335 7.56297 15.0261 4.80078 18.8408 4.80078C22.6556 4.80078 24.747 7.41944 24.747 10.4423C24.747 10.7352 24.7225 11.1278 24.6979 11.3387H15.1917C15.3879 13.5824 16.9212 15.1173 19.0984 15.1173C20.9384 15.1173 22.1128 14.3615 22.4716 13.0171H24.839ZM15.2561 9.66318H22.3091C22.1619 7.84417 20.877 6.64029 18.8255 6.64029C16.8875 6.64029 15.6394 7.68014 15.2561 9.66318Z" fill="white"/>
<path d="M25.7129 10.9375C25.7129 7.39611 27.8595 4.80088 31.6681 4.80088C33.3731 4.80088 34.8818 5.58004 35.6239 6.73705V0H38.025V16.8866H35.627V15.1291C34.8849 16.3007 33.3516 17.0887 31.6957 17.0887C27.8625 17.077 25.7129 14.4788 25.7129 10.9375ZM35.7957 10.9375C35.7957 8.4594 34.2869 6.80735 31.9656 6.80735C29.6442 6.80735 28.16 8.44768 28.16 10.9375C28.16 13.4272 29.6657 15.0705 31.9656 15.0705C34.2655 15.0705 35.7957 13.4272 35.7957 10.9375Z" fill="white"/>
<path d="M40.1719 0.363281H42.7416V14.7161H51.1685V16.8866H40.1719V0.363281Z" fill="white"/>
<path d="M54.391 0.00976562V2.88327H51.7231V0.00976562H54.391ZM51.8703 4.98933H54.2776V16.8875H51.8795L51.8703 4.98933Z" fill="white"/>
<path d="M67.5712 4.98825V17.4547C67.5712 19.9562 65.6699 21.702 62.9499 21.702H56.9456V19.7922H62.7046C64.1366 19.7922 65.1762 18.7523 65.1762 17.3112V15.375C64.5813 16.3914 62.9989 17.0769 61.2449 17.0769C57.4148 17.0769 55.2651 14.4787 55.2651 10.9256C55.2651 7.37258 57.4117 4.78906 61.2204 4.78906C62.8763 4.78906 64.4096 5.52135 65.1762 6.54655V4.96481L67.5712 4.98825ZM65.3479 10.9374C65.3479 8.43586 63.8392 6.80725 61.5178 6.80725C59.1964 6.80725 57.7092 8.44757 57.7092 10.9374C57.7092 13.4271 59.2179 15.0704 61.5178 15.0704C63.8177 15.0704 65.3479 13.4418 65.3479 10.9374Z" fill="white"/>
<path d="M69.687 0.00976562H72.085V7.09246C72.7505 5.60445 74.2316 4.80186 76.0899 4.80186C78.905 4.80186 80.7357 6.73803 80.7357 9.57052V16.8934H78.3377V10.0187C78.3377 8.12938 77.1755 6.8552 75.4214 6.8552C73.4681 6.8552 72.085 8.36664 72.085 10.4434V16.8875H69.687V0.00976562Z" fill="white"/>
<path d="M85.952 1.25977V4.98858H89.6319V6.98333H85.952V12.9207C85.952 14.1978 86.6696 14.9038 87.8809 14.9038H89.635V16.8868H87.6846C85.1639 16.8868 83.5571 15.4222 83.5571 12.991V6.98333H81.0088V4.98858H83.5571V1.25977H85.952Z" fill="white"/>
</svg>
