<svg width="210" height="209" viewBox="0 0 210 209" fill="none" xmlns="http://www.w3.org/2000/svg">
<g opacity="0.3">
<rect x="38.7646" width="8.55572" height="8.55572" transform="rotate(45 38.7646 0)" fill="#474FFF"/>
<rect x="6.0498" width="8.55572" height="8.55572" transform="rotate(45 6.0498 0)" fill="#474FFF"/>
<rect x="104.839" width="8.55572" height="8.55572" transform="rotate(45 104.839 0)" fill="#474FFF"/>
<rect x="170.913" width="8.55572" height="8.55572" transform="rotate(45 170.913 0)" fill="#474FFF"/>
<rect x="71.8018" width="8.55572" height="8.55572" transform="rotate(45 71.8018 0)" fill="#474FFF"/>
<rect x="137.876" width="8.55572" height="8.55572" transform="rotate(45 137.876 0)" fill="#474FFF"/>
<rect x="203.95" width="8.55572" height="8.55572" transform="rotate(45 203.95 0)" fill="#474FFF"/>
<rect x="38.7646" y="65.4297" width="8.55572" height="8.55572" transform="rotate(45 38.7646 65.4297)" fill="#474FFF"/>
<rect x="6.0498" y="65.4297" width="8.55572" height="8.55572" transform="rotate(45 6.0498 65.4297)" fill="#474FFF"/>
<rect x="104.839" y="65.4297" width="8.55572" height="8.55572" transform="rotate(45 104.839 65.4297)" fill="#474FFF"/>
<rect x="170.913" y="65.4297" width="8.55572" height="8.55572" transform="rotate(45 170.913 65.4297)" fill="#474FFF"/>
<rect x="71.8018" y="65.4297" width="8.55572" height="8.55572" transform="rotate(45 71.8018 65.4297)" fill="#474FFF"/>
<rect x="137.876" y="65.4297" width="8.55572" height="8.55572" transform="rotate(45 137.876 65.4297)" fill="#474FFF"/>
<rect x="203.95" y="65.4297" width="8.55572" height="8.55572" transform="rotate(45 203.95 65.4297)" fill="#474FFF"/>
<rect x="38.7646" y="130.859" width="8.55572" height="8.55572" transform="rotate(45 38.7646 130.859)" fill="#474FFF"/>
<rect x="6.0498" y="130.859" width="8.55572" height="8.55572" transform="rotate(45 6.0498 130.859)" fill="#474FFF"/>
<rect x="104.839" y="130.859" width="8.55572" height="8.55572" transform="rotate(45 104.839 130.859)" fill="#474FFF"/>
<rect x="170.913" y="130.859" width="8.55572" height="8.55572" transform="rotate(45 170.913 130.859)" fill="#474FFF"/>
<rect x="71.8018" y="130.859" width="8.55572" height="8.55572" transform="rotate(45 71.8018 130.859)" fill="#474FFF"/>
<rect x="137.876" y="130.859" width="8.55572" height="8.55572" transform="rotate(45 137.876 130.859)" fill="#474FFF"/>
<rect x="203.95" y="130.859" width="8.55572" height="8.55572" transform="rotate(45 203.95 130.859)" fill="#474FFF"/>
<rect x="38.7646" y="196.289" width="8.55572" height="8.55572" transform="rotate(45 38.7646 196.289)" fill="#474FFF"/>
<rect x="6.0498" y="196.289" width="8.55572" height="8.55572" transform="rotate(45 6.0498 196.289)" fill="#474FFF"/>
<rect x="104.839" y="196.289" width="8.55572" height="8.55572" transform="rotate(45 104.839 196.289)" fill="#474FFF"/>
<rect x="170.913" y="196.289" width="8.55572" height="8.55572" transform="rotate(45 170.913 196.289)" fill="#474FFF"/>
<rect x="71.8018" y="196.289" width="8.55572" height="8.55572" transform="rotate(45 71.8018 196.289)" fill="#474FFF"/>
<rect x="137.876" y="196.289" width="8.55572" height="8.55572" transform="rotate(45 137.876 196.289)" fill="#474FFF"/>
<rect x="203.949" y="196.289" width="8.55572" height="8.55572" transform="rotate(45 203.949 196.289)" fill="#474FFF"/>
<rect x="38.7646" y="32.7148" width="8.55572" height="8.55572" transform="rotate(45 38.7646 32.7148)" fill="#474FFF"/>
<rect x="6.0498" y="32.7148" width="8.55572" height="8.55572" transform="rotate(45 6.0498 32.7148)" fill="#474FFF"/>
<rect x="104.839" y="32.7148" width="8.55572" height="8.55572" transform="rotate(45 104.839 32.7148)" fill="#474FFF"/>
<rect x="170.913" y="32.7148" width="8.55572" height="8.55572" transform="rotate(45 170.913 32.7148)" fill="#474FFF"/>
<rect x="71.8018" y="32.7148" width="8.55572" height="8.55572" transform="rotate(45 71.8018 32.7148)" fill="#474FFF"/>
<rect x="137.876" y="32.7148" width="8.55572" height="8.55572" transform="rotate(45 137.876 32.7148)" fill="#474FFF"/>
<rect x="203.949" y="32.7148" width="8.55572" height="8.55572" transform="rotate(45 203.949 32.7148)" fill="#474FFF"/>
<rect x="38.7646" y="98.1465" width="8.55572" height="8.55572" transform="rotate(45 38.7646 98.1465)" fill="#474FFF"/>
<rect x="6.0498" y="98.1465" width="8.55572" height="8.55572" transform="rotate(45 6.0498 98.1465)" fill="#474FFF"/>
<rect x="104.839" y="98.1465" width="8.55572" height="8.55572" transform="rotate(45 104.839 98.1465)" fill="#474FFF"/>
<rect x="170.913" y="98.1465" width="8.55572" height="8.55572" transform="rotate(45 170.913 98.1465)" fill="#474FFF"/>
<rect x="71.8018" y="98.1465" width="8.55572" height="8.55572" transform="rotate(45 71.8018 98.1465)" fill="#474FFF"/>
<rect x="137.876" y="98.1465" width="8.55572" height="8.55572" transform="rotate(45 137.876 98.1465)" fill="#474FFF"/>
<rect x="203.95" y="98.1465" width="8.55572" height="8.55572" transform="rotate(45 203.95 98.1465)" fill="#474FFF"/>
<rect x="38.7646" y="163.576" width="8.55572" height="8.55572" transform="rotate(45 38.7646 163.576)" fill="#474FFF"/>
<rect x="6.0498" y="163.576" width="8.55572" height="8.55572" transform="rotate(45 6.0498 163.576)" fill="#474FFF"/>
<rect x="104.839" y="163.576" width="8.55572" height="8.55572" transform="rotate(45 104.839 163.576)" fill="#474FFF"/>
<rect x="170.913" y="163.576" width="8.55572" height="8.55572" transform="rotate(45 170.913 163.576)" fill="#474FFF"/>
<rect x="71.8018" y="163.576" width="8.55572" height="8.55572" transform="rotate(45 71.8018 163.576)" fill="#474FFF"/>
<rect x="137.876" y="163.576" width="8.55572" height="8.55572" transform="rotate(45 137.876 163.576)" fill="#474FFF"/>
<rect x="203.949" y="163.576" width="8.55572" height="8.55572" transform="rotate(45 203.949 163.576)" fill="#474FFF"/>
</g>
</svg>
