<svg width="20" height="20" viewBox="0 0 20 20" fill="none" xmlns="http://www.w3.org/2000/svg">
<g clip-path="url(#clip0_1125_705)">
<path d="M11.6029 9.8329L9.3569 8.7849C9.1609 8.6939 8.9999 8.7959 8.9999 9.0129V10.9869C8.9999 11.2039 9.1609 11.3059 9.3569 11.2149L11.6019 10.1669C11.7989 10.0749 11.7989 9.9249 11.6029 9.8329ZM9.9999 0.399902C4.6979 0.399902 0.399902 4.6979 0.399902 9.9999C0.399902 15.3019 4.6979 19.5999 9.9999 19.5999C15.3019 19.5999 19.5999 15.3019 19.5999 9.9999C19.5999 4.6979 15.3019 0.399902 9.9999 0.399902ZM9.9999 13.8999C5.0859 13.8999 4.9999 13.4569 4.9999 9.9999C4.9999 6.5429 5.0859 6.0999 9.9999 6.0999C14.9139 6.0999 14.9999 6.5429 14.9999 9.9999C14.9999 13.4569 14.9139 13.8999 9.9999 13.8999Z" fill="white"/>
</g>
<defs>
<clipPath id="clip0_1125_705">
<rect width="20" height="20" fill="white"/>
</clipPath>
</defs>
</svg>
